<?xml version="1.0" encoding="iso-8859-1"?>
<!-- Uploaded to: SVG Repo, www.svgrepo.com, Generator: SVG Repo Mixer Tools -->
<svg version="1.1" id="Layer_1" xmlns="http://www.w3.org/2000/svg" xmlns:xlink="http://www.w3.org/1999/xlink" 
	 viewBox="0 0 511.992 511.992" xml:space="preserve">
<path style="fill:#5D9CEC;" d="M309.323,469.32c0,0-9.687,42.672-53.327,42.672c-43.655,0-53.343-42.672-53.343-42.672V106.662
	h106.67V469.32z"/>
<path style="fill:#434A54;" d="M309.323,191.997h-106.67L127.998,42.663c0,0,63.14-42.663,127.998-42.663
	s127.998,42.663,127.998,42.663L309.323,191.997z"/>
<g>
	<path style="fill:#656D78;" d="M298.652,159.997c0-5.89-4.766-10.671-10.656-10.671c-4.719,0-8.703,3.062-10.125,7.296l0,0
		l-0.062,0.188v0.016l-11.156,33.438v-40.938l0,0c0-5.891-4.766-10.671-10.656-10.671s-10.672,4.781-10.672,10.671l0,0v40.937
		l-11.141-33.422c0-0.016-0.016-0.031-0.016-0.031l-0.062-0.188l0,0c-1.406-4.234-5.406-7.296-10.109-7.296
		c-5.89,0-10.671,4.781-10.671,10.671c0,1.172,0.203,2.312,0.547,3.375l0,0l12.53,37.609l20.25-6.75l-0.375-1.125h19.438
		l-0.375,1.125l20.234,6.75l12.531-37.609l0,0C298.465,162.309,298.652,161.169,298.652,159.997z"/>
	<path style="fill:#656D78;" d="M255.98,31.999c50.719,0,96.123,22.82,116.076,34.539l11.938-23.875
		c0,0-63.14-42.663-127.998-42.663S127.998,42.663,127.998,42.663l11.859,23.727C159.623,54.819,205.059,31.999,255.98,31.999z"/>
</g>
<rect x="202.656" y="191.856" style="fill:#F5F7FA;" width="106.67" height="42.655"/>
<path style="fill:#4A89DC;" d="M202.653,469.32L202.653,469.32c0,0,9.688,42.672,53.343,42.672
	c43.641,0,53.327-42.672,53.327-42.672l0,0H202.653z"/>
</svg>