<?xml version="1.0" encoding="iso-8859-1"?>
<!-- Uploaded to: SVG Repo, www.svgrepo.com, Generator: SVG Repo Mixer Tools -->
<svg height="800px" width="800px" version="1.1" id="Layer_1" xmlns="http://www.w3.org/2000/svg" xmlns:xlink="http://www.w3.org/1999/xlink" 
	 viewBox="0 0 512 512" xml:space="preserve">
<g>
	<g>
		<path style="fill:#252E49;" d="M198.619,503.172H83.86c-4.873,0-8.828-3.946-8.828-8.828c0-4.882,3.955-8.828,8.828-8.828h114.759
			c4.873,0,8.828,3.946,8.828,8.828C207.447,499.227,203.492,503.172,198.619,503.172"/>
		<path style="fill:#252E49;" d="M198.619,459.034H83.86c-4.873,0-8.828-3.946-8.828-8.828c0-4.882,3.955-8.828,8.828-8.828h114.759
			c4.873,0,8.828,3.946,8.828,8.828C207.447,455.089,203.492,459.034,198.619,459.034"/>
		<path style="fill:#252E49;" d="M198.619,414.897H83.86c-4.873,0-8.828-3.946-8.828-8.828c0-4.882,3.955-8.828,8.828-8.828h114.759
			c4.873,0,8.828,3.946,8.828,8.828C207.447,410.951,203.492,414.897,198.619,414.897"/>
		<path style="fill:#252E49;" d="M198.619,370.759H83.86c-4.873,0-8.828-3.946-8.828-8.828c0-4.882,3.955-8.828,8.828-8.828h114.759
			c4.873,0,8.828,3.946,8.828,8.828C207.447,366.813,203.492,370.759,198.619,370.759"/>
		<path style="fill:#252E49;" d="M198.619,326.621H83.86c-4.873,0-8.828-3.946-8.828-8.828c0-4.882,3.955-8.828,8.828-8.828h114.759
			c4.873,0,8.828,3.946,8.828,8.828C207.447,322.675,203.492,326.621,198.619,326.621"/>
		<path style="fill:#252E49;" d="M198.619,282.483H83.86c-4.873,0-8.828-3.946-8.828-8.828s3.955-8.828,8.828-8.828h114.759
			c4.873,0,8.828,3.946,8.828,8.828S203.492,282.483,198.619,282.483"/>
		<path style="fill:#252E49;" d="M198.619,238.345H83.86c-4.873,0-8.828-3.946-8.828-8.828s3.955-8.828,8.828-8.828h114.759
			c4.873,0,8.828,3.946,8.828,8.828S203.492,238.345,198.619,238.345"/>
		<path style="fill:#252E49;" d="M198.619,194.207H83.86c-4.873,0-8.828-3.946-8.828-8.828c0-4.882,3.955-8.828,8.828-8.828h114.759
			c4.873,0,8.828,3.946,8.828,8.828C207.447,190.261,203.492,194.207,198.619,194.207"/>
		<path style="fill:#252E49;" d="M198.619,150.069H83.86c-4.873,0-8.828-3.946-8.828-8.828s3.955-8.828,8.828-8.828h114.759
			c4.873,0,8.828,3.946,8.828,8.828S203.492,150.069,198.619,150.069"/>
		<path style="fill:#252E49;" d="M198.619,105.931H83.86c-4.873,0-8.828-3.946-8.828-8.828s3.955-8.828,8.828-8.828h114.759
			c4.873,0,8.828,3.946,8.828,8.828S203.492,105.931,198.619,105.931"/>
		<path style="fill:#252E49;" d="M198.619,61.793H83.86c-4.873,0-8.828-3.946-8.828-8.828s3.955-8.828,8.828-8.828h114.759
			c4.873,0,8.828,3.946,8.828,8.828S203.492,61.793,198.619,61.793"/>
		<path style="fill:#252E49;" d="M198.619,17.655H83.86c-4.873,0-8.828-3.946-8.828-8.828S78.987,0,83.86,0h114.759
			c4.873,0,8.828,3.946,8.828,8.828S203.492,17.655,198.619,17.655"/>
	</g>
	<path style="fill:#434C6D;" d="M55.942,0C32.399,0,13.243,19.156,13.243,42.708v417.757c0,23.552,19.156,42.708,42.699,42.708
		h36.749V0H55.942z"/>
	<path style="fill:#FECF32;" d="M498.757,194.207H269.24V64.786C269.24,29.007,298.247,0,334.025,0h99.946
		c35.778,0,64.786,29.007,64.786,64.786V194.207z"/>
	<path style="fill:#2A373E;" d="M313.378,150.069h141.241v-35.31H313.378V150.069z"/>
	<path style="fill:#425B67;" d="M339.86,35.31v26.483v8.828v44.138h70.621V70.621h44.138V35.31H339.86z"/>
	<path style="fill:#8103A1;" d="M440.943,512H327.05c-31.929,0-57.812-25.882-57.812-57.812V207.881
		c0-31.929,25.882-57.812,57.812-57.812h113.894c31.929,0,57.812,25.882,57.812,57.812v246.307
		C498.755,486.118,472.873,512,440.943,512"/>
	<path style="fill:#AB49BE;" d="M269.24,441.379h158.897V247.172H269.24V441.379z"/>
	<g>
		<path style="fill:#8103A1;" d="M322.205,291.31H269.24v17.655h52.966c4.882,0,8.828-3.946,8.828-8.828
			C331.033,295.256,327.087,291.31,322.205,291.31"/>
		<path style="fill:#8103A1;" d="M366.343,335.448H269.24v17.655h97.103c4.882,0,8.828-3.946,8.828-8.828
			C375.171,339.394,371.225,335.448,366.343,335.448"/>
		<path style="fill:#8103A1;" d="M366.343,379.586H269.24v17.655h97.103c4.882,0,8.828-3.946,8.828-8.828
			C375.171,383.532,371.225,379.586,366.343,379.586"/>
	</g>
</g>
</svg>